# xmcd
#
# Track frame offsets:
#	150
#	14567
#	27856
#	43955
#	61420
#	77953
#	89415
#	105393
#	127204
#	144130
#	156106
#	171583
#	188505
#	206165
#	221151
#	234945
#	253522
#	267980
#	288973
#	310229
#
# Disc length: 4338 seconds
#
# Revision: 0
# Processed by: cddbd v1.5.1PL0 Copyright (c) Steve Scherf et al.
# Submitted via: dBpowerAMP V4.0
#
DISCID=2510f014
DTITLE=Various Artist - Christmas Romania Stars
DYEAR=1900
DGENRE=Ballad
TTITLE0=3 Sud Est - O! Ce veste Minunata
TTITLE1=Stefan Banica jr. - Doar Un Craciun Cu tine
TTITLE2=Di Stefano - Mos Craciun
TTITLE3=Minodora - Linu-i Lin
TTITLE4=Double D - Nu Esti Singur
TTITLE5=Blondy - Florile Dalbe
TTITLE6=N and D - Fara Tine
TTITLE7=Oana Sirbu - Cintec De Leagan
TTITLE8=Romania - Iarna-i Grea
TTITLE9=Fuego - Afara Ninge Linistit
TTITLE10=Sweet Kiss - Miracol
TTITLE11=Directia 5 and Gabriela - Astazi E Craciun
TTITLE12=Gaz Pe Foc - Un Nou Inceput
TTITLE13=3 Sud Est - Mos Craciun
TTITLE14=Alina - Ninge
TTITLE15=K-Brio - Te Vreau Linga Mine De Craciun
TTITLE16=Andra - La Multi Ani Cu Sanatate
TTITLE17=Valahia - Deschide-ti Sufletul
TTITLE18=Trinitry - Colindam De Craciun
TTITLE19=George Calin - Jingle Bells
EXTD=Christmas Romania Stars
EXTT0=
EXTT1=
EXTT2=
EXTT3=
EXTT4=
EXTT5=
EXTT6=
EXTT7=
EXTT8=
EXTT9=
EXTT10=
EXTT11=
EXTT12=
EXTT13=
EXTT14=
EXTT15=
EXTT16=
EXTT17=
EXTT18=
EXTT19=
PLAYORDER=
